{
	"patcher" : 	{
		"fileversion" : 1,
		"appversion" : 		{
			"major" : 7,
			"minor" : 3,
			"revision" : 5,
			"architecture" : "x86",
			"modernui" : 1
		}
,
		"rect" : [ -211.0, 1158.0, 1052.0, 938.0 ],
		"bglocked" : 0,
		"openinpresentation" : 0,
		"default_fontsize" : 12.0,
		"default_fontface" : 0,
		"default_fontname" : "Arial",
		"gridonopen" : 1,
		"gridsize" : [ 15.0, 15.0 ],
		"gridsnaponopen" : 1,
		"objectsnaponopen" : 1,
		"statusbarvisible" : 2,
		"toolbarvisible" : 1,
		"lefttoolbarpinned" : 0,
		"toptoolbarpinned" : 0,
		"righttoolbarpinned" : 0,
		"bottomtoolbarpinned" : 0,
		"toolbars_unpinned_last_save" : 0,
		"tallnewobj" : 0,
		"boxanimatetime" : 200,
		"enablehscroll" : 1,
		"enablevscroll" : 1,
		"devicewidth" : 0.0,
		"description" : "",
		"digest" : "",
		"tags" : "",
		"style" : "",
		"subpatcher_template" : "",
		"boxes" : [ 			{
				"box" : 				{
					"id" : "obj-9",
					"maxclass" : "newobj",
					"numinlets" : 1,
					"numoutlets" : 1,
					"outlettype" : [ "" ],
					"patching_rect" : [ 398.0, 251.0, 99.0, 22.0 ],
					"style" : "",
					"text" : "udpreceive 9001"
				}

			}
, 			{
				"box" : 				{
					"id" : "obj-16",
					"maxclass" : "newobj",
					"numinlets" : 2,
					"numoutlets" : 2,
					"outlettype" : [ "", "" ],
					"patching_rect" : [ 733.0, 332.0, 208.0, 22.0 ],
					"style" : "",
					"text" : "route /muse/elements/theta_absolute"
				}

			}
, 			{
				"box" : 				{
					"id" : "obj-14",
					"maxclass" : "newobj",
					"numinlets" : 2,
					"numoutlets" : 2,
					"outlettype" : [ "", "" ],
					"patching_rect" : [ 497.0, 332.0, 221.0, 22.0 ],
					"style" : "",
					"text" : "route /muse/elements/gamma_absolute"
				}

			}
, 			{
				"box" : 				{
					"id" : "obj-12",
					"maxclass" : "newobj",
					"numinlets" : 2,
					"numoutlets" : 2,
					"outlettype" : [ "", "" ],
					"patching_rect" : [ 266.0, 332.0, 205.0, 22.0 ],
					"style" : "",
					"text" : "route /muse/elements/beta_absolute"
				}

			}
, 			{
				"box" : 				{
					"id" : "obj-8",
					"maxclass" : "newobj",
					"numinlets" : 1,
					"numoutlets" : 0,
					"patcher" : 					{
						"fileversion" : 1,
						"appversion" : 						{
							"major" : 7,
							"minor" : 3,
							"revision" : 5,
							"architecture" : "x86",
							"modernui" : 1
						}
,
						"rect" : [ -823.0, 1518.0, 636.0, 938.0 ],
						"bglocked" : 0,
						"openinpresentation" : 0,
						"default_fontsize" : 12.0,
						"default_fontface" : 0,
						"default_fontname" : "Arial",
						"gridonopen" : 1,
						"gridsize" : [ 15.0, 15.0 ],
						"gridsnaponopen" : 1,
						"objectsnaponopen" : 1,
						"statusbarvisible" : 2,
						"toolbarvisible" : 1,
						"lefttoolbarpinned" : 0,
						"toptoolbarpinned" : 0,
						"righttoolbarpinned" : 0,
						"bottomtoolbarpinned" : 0,
						"toolbars_unpinned_last_save" : 0,
						"tallnewobj" : 0,
						"boxanimatetime" : 200,
						"enablehscroll" : 1,
						"enablevscroll" : 1,
						"devicewidth" : 0.0,
						"description" : "",
						"digest" : "",
						"tags" : "",
						"style" : "",
						"subpatcher_template" : "",
						"boxes" : [ 							{
								"box" : 								{
									"id" : "obj-15",
									"maxclass" : "newobj",
									"numinlets" : 1,
									"numoutlets" : 0,
									"patching_rect" : [ 308.0, 535.0, 64.0, 22.0 ],
									"style" : "",
									"text" : "print reset"
								}

							}
, 							{
								"box" : 								{
									"id" : "obj-14",
									"maxclass" : "message",
									"numinlets" : 2,
									"numoutlets" : 1,
									"outlettype" : [ "" ],
									"patching_rect" : [ 241.0, 535.0, 47.0, 22.0 ],
									"style" : "",
									"text" : "0 2000"
								}

							}
, 							{
								"box" : 								{
									"id" : "obj-10",
									"maxclass" : "newobj",
									"numinlets" : 2,
									"numoutlets" : 2,
									"outlettype" : [ "", "" ],
									"patching_rect" : [ 241.0, 492.0, 131.0, 22.0 ],
									"style" : "",
									"text" : "route /dust_more/reset"
								}

							}
, 							{
								"box" : 								{
									"id" : "obj-9",
									"maxclass" : "newobj",
									"numinlets" : 1,
									"numoutlets" : 1,
									"outlettype" : [ "" ],
									"patching_rect" : [ 241.0, 447.0, 99.0, 22.0 ],
									"style" : "",
									"text" : "udpreceive 9001"
								}

							}
, 							{
								"box" : 								{
									"id" : "obj-8",
									"maxclass" : "newobj",
									"numinlets" : 1,
									"numoutlets" : 0,
									"patching_rect" : [ 289.0, 171.0, 89.0, 22.0 ],
									"style" : "",
									"text" : "print new_max"
								}

							}
, 							{
								"box" : 								{
									"id" : "obj-7",
									"maxclass" : "newobj",
									"numinlets" : 1,
									"numoutlets" : 0,
									"patching_rect" : [ 178.0, 171.0, 85.0, 22.0 ],
									"style" : "",
									"text" : "print new_min"
								}

							}
, 							{
								"box" : 								{
									"id" : "obj-6",
									"maxclass" : "newobj",
									"numinlets" : 2,
									"numoutlets" : 2,
									"outlettype" : [ "", "" ],
									"patching_rect" : [ 193.0, 110.0, 195.0, 22.0 ],
									"style" : "",
									"text" : "route /alpha_absolute/update_max"
								}

							}
, 							{
								"box" : 								{
									"id" : "obj-3",
									"maxclass" : "newobj",
									"numinlets" : 2,
									"numoutlets" : 2,
									"outlettype" : [ "", "" ],
									"patching_rect" : [ 77.199997, 70.0, 192.0, 22.0 ],
									"style" : "",
									"text" : "route /alpha_absolute/update_min"
								}

							}
, 							{
								"box" : 								{
									"id" : "obj-5",
									"maxclass" : "newobj",
									"numinlets" : 1,
									"numoutlets" : 1,
									"outlettype" : [ "" ],
									"patching_rect" : [ 193.0, 11.0, 99.0, 22.0 ],
									"style" : "",
									"text" : "udpreceive 9001"
								}

							}
, 							{
								"box" : 								{
									"id" : "obj-2",
									"maxclass" : "newobj",
									"numinlets" : 6,
									"numoutlets" : 1,
									"outlettype" : [ "" ],
									"patching_rect" : [ 58.0, 171.0, 96.0, 22.0 ],
									"style" : "",
									"text" : "scale -1. 1. 0. 1."
								}

							}
, 							{
								"box" : 								{
									"format" : 6,
									"id" : "obj-42",
									"maxclass" : "flonum",
									"numinlets" : 1,
									"numoutlets" : 2,
									"outlettype" : [ "", "bang" ],
									"parameter_enable" : 0,
									"patching_rect" : [ 58.0, 791.0, 64.0, 22.0 ],
									"style" : ""
								}

							}
, 							{
								"box" : 								{
									"id" : "obj-37",
									"maxclass" : "button",
									"numinlets" : 1,
									"numoutlets" : 1,
									"outlettype" : [ "bang" ],
									"patching_rect" : [ 58.0, 400.0, 24.0, 24.0 ],
									"style" : ""
								}

							}
, 							{
								"box" : 								{
									"id" : "obj-35",
									"maxclass" : "message",
									"numinlets" : 2,
									"numoutlets" : 1,
									"outlettype" : [ "" ],
									"patching_rect" : [ 58.0, 447.0, 147.0, 22.0 ],
									"style" : "",
									"text" : "0.174157, 0.16473 250"
								}

							}
, 							{
								"box" : 								{
									"id" : "obj-27",
									"maxclass" : "message",
									"numinlets" : 2,
									"numoutlets" : 1,
									"outlettype" : [ "" ],
									"patching_rect" : [ 84.666664, 305.0, 29.5, 22.0 ],
									"style" : "",
									"text" : ","
								}

							}
, 							{
								"box" : 								{
									"id" : "obj-25",
									"maxclass" : "newobj",
									"numinlets" : 4,
									"numoutlets" : 1,
									"outlettype" : [ "" ],
									"patching_rect" : [ 58.0, 352.0, 93.0, 22.0 ],
									"style" : "",
									"text" : "pack 0. \\, 0. 250"
								}

							}
, 							{
								"box" : 								{
									"format" : 6,
									"id" : "obj-22",
									"maxclass" : "flonum",
									"numinlets" : 1,
									"numoutlets" : 2,
									"outlettype" : [ "", "bang" ],
									"parameter_enable" : 0,
									"patching_rect" : [ 114.0, 257.0, 50.0, 22.0 ],
									"style" : ""
								}

							}
, 							{
								"box" : 								{
									"format" : 6,
									"id" : "obj-21",
									"maxclass" : "flonum",
									"numinlets" : 1,
									"numoutlets" : 2,
									"outlettype" : [ "", "bang" ],
									"parameter_enable" : 0,
									"patching_rect" : [ 58.0, 257.0, 50.0, 22.0 ],
									"style" : ""
								}

							}
, 							{
								"box" : 								{
									"id" : "obj-12",
									"maxclass" : "newobj",
									"numinlets" : 3,
									"numoutlets" : 2,
									"outlettype" : [ "", "" ],
									"patching_rect" : [ 58.0, 492.0, 101.0, 22.0 ],
									"style" : "",
									"text" : "line 0."
								}

							}
, 							{
								"box" : 								{
									"id" : "obj-11",
									"maxclass" : "newobj",
									"numinlets" : 1,
									"numoutlets" : 3,
									"outlettype" : [ "", "", "" ],
									"patching_rect" : [ 58.0, 219.0, 115.0, 22.0 ],
									"saved_object_attributes" : 									{
										"filename" : "number_switch.js",
										"parameter_enable" : 0
									}
,
									"style" : "",
									"text" : "js number_switch.js"
								}

							}
, 							{
								"box" : 								{
									"id" : "obj-4",
									"maxclass" : "meter~",
									"numinlets" : 1,
									"numoutlets" : 1,
									"outlettype" : [ "float" ],
									"patching_rect" : [ 58.0, 541.0, 74.0, 229.0 ],
									"style" : ""
								}

							}
, 							{
								"box" : 								{
									"comment" : "",
									"id" : "obj-1",
									"index" : 1,
									"maxclass" : "inlet",
									"numinlets" : 0,
									"numoutlets" : 1,
									"outlettype" : [ "" ],
									"patching_rect" : [ 58.0, 7.0, 30.0, 30.0 ],
									"style" : ""
								}

							}
 ],
						"lines" : [ 							{
								"patchline" : 								{
									"destination" : [ "obj-2", 0 ],
									"source" : [ "obj-1", 0 ]
								}

							}
, 							{
								"patchline" : 								{
									"destination" : [ "obj-14", 0 ],
									"order" : 1,
									"source" : [ "obj-10", 0 ]
								}

							}
, 							{
								"patchline" : 								{
									"destination" : [ "obj-15", 0 ],
									"order" : 0,
									"source" : [ "obj-10", 0 ]
								}

							}
, 							{
								"patchline" : 								{
									"destination" : [ "obj-21", 0 ],
									"source" : [ "obj-11", 0 ]
								}

							}
, 							{
								"patchline" : 								{
									"destination" : [ "obj-22", 0 ],
									"source" : [ "obj-11", 1 ]
								}

							}
, 							{
								"patchline" : 								{
									"destination" : [ "obj-4", 0 ],
									"source" : [ "obj-12", 0 ]
								}

							}
, 							{
								"patchline" : 								{
									"destination" : [ "obj-12", 0 ],
									"source" : [ "obj-14", 0 ]
								}

							}
, 							{
								"patchline" : 								{
									"destination" : [ "obj-11", 0 ],
									"source" : [ "obj-2", 0 ]
								}

							}
, 							{
								"patchline" : 								{
									"destination" : [ "obj-25", 0 ],
									"order" : 1,
									"source" : [ "obj-21", 0 ]
								}

							}
, 							{
								"patchline" : 								{
									"destination" : [ "obj-27", 0 ],
									"order" : 0,
									"source" : [ "obj-21", 0 ]
								}

							}
, 							{
								"patchline" : 								{
									"destination" : [ "obj-25", 2 ],
									"source" : [ "obj-22", 0 ]
								}

							}
, 							{
								"patchline" : 								{
									"destination" : [ "obj-35", 1 ],
									"order" : 0,
									"source" : [ "obj-25", 0 ]
								}

							}
, 							{
								"patchline" : 								{
									"destination" : [ "obj-37", 0 ],
									"order" : 1,
									"source" : [ "obj-25", 0 ]
								}

							}
, 							{
								"patchline" : 								{
									"destination" : [ "obj-25", 1 ],
									"source" : [ "obj-27", 0 ]
								}

							}
, 							{
								"patchline" : 								{
									"destination" : [ "obj-2", 1 ],
									"order" : 1,
									"source" : [ "obj-3", 0 ]
								}

							}
, 							{
								"patchline" : 								{
									"destination" : [ "obj-7", 0 ],
									"order" : 0,
									"source" : [ "obj-3", 0 ]
								}

							}
, 							{
								"patchline" : 								{
									"destination" : [ "obj-12", 0 ],
									"source" : [ "obj-35", 0 ]
								}

							}
, 							{
								"patchline" : 								{
									"destination" : [ "obj-35", 0 ],
									"source" : [ "obj-37", 0 ]
								}

							}
, 							{
								"patchline" : 								{
									"destination" : [ "obj-42", 0 ],
									"source" : [ "obj-4", 0 ]
								}

							}
, 							{
								"patchline" : 								{
									"destination" : [ "obj-3", 0 ],
									"order" : 1,
									"source" : [ "obj-5", 0 ]
								}

							}
, 							{
								"patchline" : 								{
									"destination" : [ "obj-6", 0 ],
									"order" : 0,
									"source" : [ "obj-5", 0 ]
								}

							}
, 							{
								"patchline" : 								{
									"destination" : [ "obj-2", 2 ],
									"order" : 1,
									"source" : [ "obj-6", 0 ]
								}

							}
, 							{
								"patchline" : 								{
									"destination" : [ "obj-8", 0 ],
									"order" : 0,
									"source" : [ "obj-6", 0 ]
								}

							}
, 							{
								"patchline" : 								{
									"destination" : [ "obj-10", 0 ],
									"source" : [ "obj-9", 0 ]
								}

							}
 ]
					}
,
					"patching_rect" : [ 30.0, 377.0, 83.0, 22.0 ],
					"saved_object_attributes" : 					{
						"description" : "",
						"digest" : "",
						"globalpatchername" : "",
						"style" : "",
						"tags" : ""
					}
,
					"style" : "",
					"text" : "patcher alpha",
					"varname" : "alpha"
				}

			}
, 			{
				"box" : 				{
					"id" : "obj-10",
					"maxclass" : "newobj",
					"numinlets" : 2,
					"numoutlets" : 2,
					"outlettype" : [ "", "" ],
					"patching_rect" : [ 30.0, 332.0, 211.0, 22.0 ],
					"style" : "",
					"text" : "route /muse/elements/alpha_absolute"
				}

			}
, 			{
				"box" : 				{
					"id" : "obj-7",
					"maxclass" : "newobj",
					"numinlets" : 1,
					"numoutlets" : 0,
					"patcher" : 					{
						"fileversion" : 1,
						"appversion" : 						{
							"major" : 7,
							"minor" : 3,
							"revision" : 5,
							"architecture" : "x86",
							"modernui" : 1
						}
,
						"rect" : [ 59.0, 103.0, 640.0, 480.0 ],
						"bglocked" : 0,
						"openinpresentation" : 0,
						"default_fontsize" : 12.0,
						"default_fontface" : 0,
						"default_fontname" : "Arial",
						"gridonopen" : 1,
						"gridsize" : [ 15.0, 15.0 ],
						"gridsnaponopen" : 1,
						"objectsnaponopen" : 1,
						"statusbarvisible" : 2,
						"toolbarvisible" : 1,
						"lefttoolbarpinned" : 0,
						"toptoolbarpinned" : 0,
						"righttoolbarpinned" : 0,
						"bottomtoolbarpinned" : 0,
						"toolbars_unpinned_last_save" : 0,
						"tallnewobj" : 0,
						"boxanimatetime" : 200,
						"enablehscroll" : 1,
						"enablevscroll" : 1,
						"devicewidth" : 0.0,
						"description" : "",
						"digest" : "",
						"tags" : "",
						"style" : "",
						"subpatcher_template" : "",
						"boxes" : [ 							{
								"box" : 								{
									"comment" : "",
									"id" : "obj-1",
									"index" : 1,
									"maxclass" : "inlet",
									"numinlets" : 0,
									"numoutlets" : 1,
									"outlettype" : [ "" ],
									"patching_rect" : [ 58.0, 42.0, 30.0, 30.0 ],
									"style" : ""
								}

							}
 ],
						"lines" : [  ]
					}
,
					"patching_rect" : [ 348.0, 119.0, 99.0, 22.0 ],
					"saved_object_attributes" : 					{
						"description" : "",
						"digest" : "",
						"globalpatchername" : "",
						"style" : "",
						"tags" : ""
					}
,
					"style" : "",
					"text" : "patcher sparkles"
				}

			}
, 			{
				"box" : 				{
					"id" : "obj-6",
					"maxclass" : "newobj",
					"numinlets" : 1,
					"numoutlets" : 0,
					"patcher" : 					{
						"fileversion" : 1,
						"appversion" : 						{
							"major" : 7,
							"minor" : 3,
							"revision" : 5,
							"architecture" : "x86",
							"modernui" : 1
						}
,
						"rect" : [ 59.0, 103.0, 640.0, 480.0 ],
						"bglocked" : 0,
						"openinpresentation" : 0,
						"default_fontsize" : 12.0,
						"default_fontface" : 0,
						"default_fontname" : "Arial",
						"gridonopen" : 1,
						"gridsize" : [ 15.0, 15.0 ],
						"gridsnaponopen" : 1,
						"objectsnaponopen" : 1,
						"statusbarvisible" : 2,
						"toolbarvisible" : 1,
						"lefttoolbarpinned" : 0,
						"toptoolbarpinned" : 0,
						"righttoolbarpinned" : 0,
						"bottomtoolbarpinned" : 0,
						"toolbars_unpinned_last_save" : 0,
						"tallnewobj" : 0,
						"boxanimatetime" : 200,
						"enablehscroll" : 1,
						"enablevscroll" : 1,
						"devicewidth" : 0.0,
						"description" : "",
						"digest" : "",
						"tags" : "",
						"style" : "",
						"subpatcher_template" : "",
						"boxes" : [ 							{
								"box" : 								{
									"comment" : "",
									"id" : "obj-1",
									"index" : 1,
									"maxclass" : "inlet",
									"numinlets" : 0,
									"numoutlets" : 1,
									"outlettype" : [ "" ],
									"patching_rect" : [ 58.0, 42.0, 30.0, 30.0 ],
									"style" : ""
								}

							}
 ],
						"lines" : [  ]
					}
,
					"patching_rect" : [ 187.0, 119.0, 80.0, 22.0 ],
					"saved_object_attributes" : 					{
						"description" : "",
						"digest" : "",
						"globalpatchername" : "",
						"style" : "",
						"tags" : ""
					}
,
					"style" : "",
					"text" : "patcher pads"
				}

			}
, 			{
				"box" : 				{
					"id" : "obj-5",
					"maxclass" : "newobj",
					"numinlets" : 1,
					"numoutlets" : 0,
					"patcher" : 					{
						"fileversion" : 1,
						"appversion" : 						{
							"major" : 7,
							"minor" : 3,
							"revision" : 5,
							"architecture" : "x86",
							"modernui" : 1
						}
,
						"rect" : [ -1851.0, 156.0, 542.0, 471.0 ],
						"bglocked" : 0,
						"openinpresentation" : 0,
						"default_fontsize" : 12.0,
						"default_fontface" : 0,
						"default_fontname" : "Arial",
						"gridonopen" : 1,
						"gridsize" : [ 15.0, 15.0 ],
						"gridsnaponopen" : 1,
						"objectsnaponopen" : 1,
						"statusbarvisible" : 2,
						"toolbarvisible" : 1,
						"lefttoolbarpinned" : 0,
						"toptoolbarpinned" : 0,
						"righttoolbarpinned" : 0,
						"bottomtoolbarpinned" : 0,
						"toolbars_unpinned_last_save" : 0,
						"tallnewobj" : 0,
						"boxanimatetime" : 200,
						"enablehscroll" : 1,
						"enablevscroll" : 1,
						"devicewidth" : 0.0,
						"description" : "",
						"digest" : "",
						"tags" : "",
						"style" : "",
						"subpatcher_template" : "",
						"visible" : 1,
						"boxes" : [ 							{
								"box" : 								{
									"id" : "obj-9",
									"maxclass" : "newobj",
									"numinlets" : 1,
									"numoutlets" : 1,
									"outlettype" : [ "int" ],
									"patching_rect" : [ 89.5, 267.0, 52.0, 22.0 ],
									"style" : "",
									"text" : "midiin b"
								}

							}
, 							{
								"box" : 								{
									"id" : "obj-24",
									"maxclass" : "newobj",
									"numinlets" : 1,
									"numoutlets" : 0,
									"patcher" : 									{
										"fileversion" : 1,
										"appversion" : 										{
											"major" : 7,
											"minor" : 3,
											"revision" : 5,
											"architecture" : "x86",
											"modernui" : 1
										}
,
										"rect" : [ 34.0, 78.0, 1212.0, 968.0 ],
										"bglocked" : 0,
										"openinpresentation" : 0,
										"default_fontsize" : 12.0,
										"default_fontface" : 0,
										"default_fontname" : "Arial",
										"gridonopen" : 1,
										"gridsize" : [ 15.0, 15.0 ],
										"gridsnaponopen" : 1,
										"objectsnaponopen" : 1,
										"statusbarvisible" : 2,
										"toolbarvisible" : 1,
										"lefttoolbarpinned" : 0,
										"toptoolbarpinned" : 0,
										"righttoolbarpinned" : 0,
										"bottomtoolbarpinned" : 0,
										"toolbars_unpinned_last_save" : 0,
										"tallnewobj" : 0,
										"boxanimatetime" : 200,
										"enablehscroll" : 1,
										"enablevscroll" : 1,
										"devicewidth" : 0.0,
										"description" : "",
										"digest" : "",
										"tags" : "",
										"style" : "",
										"subpatcher_template" : "",
										"boxes" : [ 											{
												"box" : 												{
													"bgmode" : 0,
													"border" : 0,
													"clickthrough" : 0,
													"enablehscroll" : 0,
													"enablevscroll" : 0,
													"extract" : 1,
													"id" : "obj-17",
													"lockeddragscroll" : 0,
													"maxclass" : "bpatcher",
													"name" : "bp.VCA.maxpat",
													"numinlets" : 2,
													"numoutlets" : 1,
													"offset" : [ 0.0, 0.0 ],
													"outlettype" : [ "signal" ],
													"patching_rect" : [ 476.0, 377.0, 113.0, 116.0 ],
													"varname" : "bp.VCA[1]",
													"viewvisibility" : 1
												}

											}
, 											{
												"box" : 												{
													"bgmode" : 0,
													"border" : 0,
													"clickthrough" : 0,
													"enablehscroll" : 0,
													"enablevscroll" : 0,
													"extract" : 1,
													"id" : "obj-16",
													"lockeddragscroll" : 0,
													"maxclass" : "bpatcher",
													"name" : "bp.MMF.maxpat",
													"numinlets" : 5,
													"numoutlets" : 1,
													"offset" : [ 0.0, 0.0 ],
													"outlettype" : [ "signal" ],
													"patching_rect" : [ 26.0, 377.0, 427.0, 116.0 ],
													"varname" : "bp.MMF",
													"viewvisibility" : 1
												}

											}
, 											{
												"box" : 												{
													"id" : "obj-13",
													"maxclass" : "newobj",
													"numinlets" : 2,
													"numoutlets" : 2,
													"outlettype" : [ "", "" ],
													"patching_rect" : [ 867.0, 134.0, 151.0, 22.0 ],
													"style" : "",
													"text" : "route /dust_more/attention"
												}

											}
, 											{
												"box" : 												{
													"id" : "obj-12",
													"maxclass" : "newobj",
													"numinlets" : 1,
													"numoutlets" : 1,
													"outlettype" : [ "" ],
													"patching_rect" : [ 867.0, 95.0, 99.0, 22.0 ],
													"style" : "",
													"text" : "udpreceive 9001"
												}

											}
, 											{
												"box" : 												{
													"bgmode" : 0,
													"border" : 0,
													"clickthrough" : 0,
													"enablehscroll" : 0,
													"enablevscroll" : 0,
													"extract" : 1,
													"id" : "obj-8",
													"lockeddragscroll" : 0,
													"maxclass" : "bpatcher",
													"name" : "bp.Cloud.maxpat",
													"numinlets" : 4,
													"numoutlets" : 1,
													"offset" : [ 0.0, 0.0 ],
													"outlettype" : [ "signal" ],
													"patching_rect" : [ 26.0, 221.0, 280.0, 116.0 ],
													"varname" : "bp.Cloud",
													"viewvisibility" : 1
												}

											}
, 											{
												"box" : 												{
													"bgmode" : 0,
													"border" : 0,
													"clickthrough" : 0,
													"enablehscroll" : 0,
													"enablevscroll" : 0,
													"extract" : 1,
													"id" : "obj-4",
													"lockeddragscroll" : 0,
													"maxclass" : "bpatcher",
													"name" : "bp.Reverb 1.maxpat",
													"numinlets" : 4,
													"numoutlets" : 2,
													"offset" : [ 0.0, 0.0 ],
													"outlettype" : [ "signal", "signal" ],
													"patching_rect" : [ 26.0, 674.0, 190.0, 116.0 ],
													"varname" : "bp.Reverb 1",
													"viewvisibility" : 1
												}

											}
, 											{
												"box" : 												{
													"bgmode" : 0,
													"border" : 0,
													"clickthrough" : 0,
													"enablehscroll" : 0,
													"enablevscroll" : 0,
													"extract" : 1,
													"id" : "obj-3",
													"lockeddragscroll" : 0,
													"maxclass" : "bpatcher",
													"name" : "bp.ADSR2.maxpat",
													"numinlets" : 1,
													"numoutlets" : 1,
													"offset" : [ 0.0, 0.0 ],
													"outlettype" : [ "signal" ],
													"patching_rect" : [ 322.0, 221.0, 341.0, 116.0 ],
													"varname" : "bp.ADSR2",
													"viewvisibility" : 1
												}

											}
, 											{
												"box" : 												{
													"bgmode" : 0,
													"border" : 0,
													"clickthrough" : 0,
													"enablehscroll" : 0,
													"enablevscroll" : 0,
													"extract" : 1,
													"id" : "obj-23",
													"lockeddragscroll" : 0,
													"maxclass" : "bpatcher",
													"name" : "bp.VCA.maxpat",
													"numinlets" : 2,
													"numoutlets" : 1,
													"offset" : [ 0.0, 0.0 ],
													"outlettype" : [ "signal" ],
													"patching_rect" : [ 26.0, 531.0, 113.0, 116.0 ],
													"varname" : "bp.VCA",
													"viewvisibility" : 1
												}

											}
, 											{
												"box" : 												{
													"bgmode" : 0,
													"border" : 0,
													"clickthrough" : 0,
													"enablehscroll" : 0,
													"enablevscroll" : 0,
													"extract" : 1,
													"id" : "obj-5",
													"lockeddragscroll" : 0,
													"maxclass" : "bpatcher",
													"name" : "bp.Stereo.maxpat",
													"numinlets" : 2,
													"numoutlets" : 0,
													"offset" : [ 0.0, 0.0 ],
													"patching_rect" : [ 26.0, 819.0, 148.0, 116.0 ],
													"varname" : "bp.Stereo",
													"viewvisibility" : 1
												}

											}
, 											{
												"box" : 												{
													"bgmode" : 0,
													"border" : 0,
													"clickthrough" : 0,
													"enablehscroll" : 0,
													"enablevscroll" : 0,
													"extract" : 1,
													"id" : "obj-2",
													"lockeddragscroll" : 0,
													"maxclass" : "bpatcher",
													"name" : "bp.MIDI to Signal.maxpat",
													"numinlets" : 1,
													"numoutlets" : 5,
													"offset" : [ 0.0, 0.0 ],
													"outlettype" : [ "signal", "signal", "signal", "signal", "signal" ],
													"patching_rect" : [ 26.0, 44.0, 163.0, 116.0 ],
													"varname" : "bp.MIDI to Signal",
													"viewvisibility" : 1
												}

											}
, 											{
												"box" : 												{
													"comment" : "",
													"id" : "obj-1",
													"index" : 1,
													"maxclass" : "inlet",
													"numinlets" : 0,
													"numoutlets" : 1,
													"outlettype" : [ "float" ],
													"patching_rect" : [ 26.0, 2.0, 30.0, 30.0 ],
													"style" : ""
												}

											}
, 											{
												"box" : 												{
													"bgmode" : 0,
													"border" : 0,
													"clickthrough" : 0,
													"enablehscroll" : 0,
													"enablevscroll" : 0,
													"extract" : 1,
													"id" : "obj-7",
													"lockeddragscroll" : 0,
													"maxclass" : "bpatcher",
													"name" : "bp.Keyboard.maxpat",
													"numinlets" : 0,
													"numoutlets" : 4,
													"offset" : [ 0.0, 0.0 ],
													"outlettype" : [ "signal", "signal", "signal", "signal" ],
													"patching_rect" : [ 330.0, 44.0, 506.0, 116.0 ],
													"varname" : "bp.Keyboard[1]",
													"viewvisibility" : 1
												}

											}
 ],
										"lines" : [ 											{
												"patchline" : 												{
													"destination" : [ "obj-2", 0 ],
													"source" : [ "obj-1", 0 ]
												}

											}
, 											{
												"patchline" : 												{
													"destination" : [ "obj-13", 0 ],
													"source" : [ "obj-12", 0 ]
												}

											}
, 											{
												"patchline" : 												{
													"destination" : [ "obj-23", 0 ],
													"source" : [ "obj-16", 0 ]
												}

											}
, 											{
												"patchline" : 												{
													"destination" : [ "obj-16", 1 ],
													"source" : [ "obj-17", 0 ]
												}

											}
, 											{
												"patchline" : 												{
													"destination" : [ "obj-3", 0 ],
													"source" : [ "obj-2", 1 ]
												}

											}
, 											{
												"patchline" : 												{
													"destination" : [ "obj-8", 0 ],
													"source" : [ "obj-2", 0 ]
												}

											}
, 											{
												"patchline" : 												{
													"destination" : [ "obj-4", 0 ],
													"source" : [ "obj-23", 0 ]
												}

											}
, 											{
												"patchline" : 												{
													"destination" : [ "obj-17", 1 ],
													"order" : 0,
													"source" : [ "obj-3", 0 ]
												}

											}
, 											{
												"patchline" : 												{
													"destination" : [ "obj-17", 0 ],
													"order" : 2,
													"source" : [ "obj-3", 0 ]
												}

											}
, 											{
												"patchline" : 												{
													"destination" : [ "obj-23", 1 ],
													"order" : 1,
													"source" : [ "obj-3", 0 ]
												}

											}
, 											{
												"patchline" : 												{
													"destination" : [ "obj-5", 1 ],
													"source" : [ "obj-4", 1 ]
												}

											}
, 											{
												"patchline" : 												{
													"destination" : [ "obj-5", 0 ],
													"source" : [ "obj-4", 0 ]
												}

											}
, 											{
												"patchline" : 												{
													"destination" : [ "obj-3", 0 ],
													"source" : [ "obj-7", 1 ]
												}

											}
, 											{
												"patchline" : 												{
													"destination" : [ "obj-8", 0 ],
													"source" : [ "obj-7", 0 ]
												}

											}
, 											{
												"patchline" : 												{
													"destination" : [ "obj-16", 0 ],
													"source" : [ "obj-8", 0 ]
												}

											}
 ],
										"styles" : [ 											{
												"name" : "Manuel1",
												"default" : 												{
													"fontname" : [ "Arial Bold" ],
													"fontface" : [ 0 ],
													"fontsize" : [ 10.0 ],
													"bgfillcolor" : 													{
														"type" : "gradient",
														"color1" : [ 0.376471, 0.384314, 0.4, 1.0 ],
														"color2" : [ 0.290196, 0.309804, 0.301961, 1.0 ],
														"color" : [ 0.290196, 0.309804, 0.301961, 1.0 ],
														"angle" : 270.0,
														"proportion" : 0.39
													}

												}
,
												"parentstyle" : "",
												"multi" : 0
											}
 ]
									}
,
									"patching_rect" : [ 58.0, 323.0, 115.0, 22.0 ],
									"saved_object_attributes" : 									{
										"description" : "",
										"digest" : "",
										"globalpatchername" : "",
										"style" : "",
										"tags" : ""
									}
,
									"style" : "",
									"text" : "patcher bass_synth",
									"varname" : "bass_synth"
								}

							}
, 							{
								"box" : 								{
									"id" : "obj-20",
									"maxclass" : "message",
									"numinlets" : 2,
									"numoutlets" : 1,
									"outlettype" : [ "" ],
									"patching_rect" : [ 191.0, 299.0, 50.0, 22.0 ],
									"style" : "",
									"text" : "0"
								}

							}
, 							{
								"box" : 								{
									"id" : "obj-12",
									"maxclass" : "message",
									"numinlets" : 2,
									"numoutlets" : 1,
									"outlettype" : [ "" ],
									"patching_rect" : [ 178.0, 103.0, 37.0, 22.0 ],
									"style" : "",
									"text" : "clear"
								}

							}
, 							{
								"box" : 								{
									"id" : "obj-10",
									"maxclass" : "newobj",
									"numinlets" : 1,
									"numoutlets" : 1,
									"outlettype" : [ "" ],
									"patching_rect" : [ 178.0, 13.0, 99.0, 22.0 ],
									"style" : "",
									"text" : "udpreceive 9001"
								}

							}
, 							{
								"box" : 								{
									"id" : "obj-7",
									"maxclass" : "newobj",
									"numinlets" : 2,
									"numoutlets" : 2,
									"outlettype" : [ "", "" ],
									"patching_rect" : [ 178.0, 55.0, 131.0, 22.0 ],
									"style" : "",
									"text" : "route /dust_more/reset"
								}

							}
, 							{
								"box" : 								{
									"id" : "obj-4",
									"maxclass" : "message",
									"numinlets" : 2,
									"numoutlets" : 1,
									"outlettype" : [ "" ],
									"patching_rect" : [ 262.0, 216.0, 50.0, 22.0 ],
									"style" : "",
									"text" : "0"
								}

							}
, 							{
								"box" : 								{
									"id" : "obj-3",
									"maxclass" : "message",
									"numinlets" : 2,
									"numoutlets" : 1,
									"outlettype" : [ "" ],
									"patching_rect" : [ 318.0, 216.0, 50.0, 22.0 ],
									"style" : "",
									"text" : "1598"
								}

							}
, 							{
								"box" : 								{
									"id" : "obj-6",
									"maxclass" : "message",
									"numinlets" : 2,
									"numoutlets" : 1,
									"outlettype" : [ "" ],
									"patching_rect" : [ 205.0, 216.0, 50.0, 22.0 ],
									"style" : "",
									"text" : "1"
								}

							}
, 							{
								"box" : 								{
									"id" : "obj-5",
									"maxclass" : "newobj",
									"numinlets" : 1,
									"numoutlets" : 3,
									"outlettype" : [ "int", "int", "int" ],
									"patching_rect" : [ 58.0, 103.0, 103.0, 22.0 ],
									"style" : "",
									"text" : "unpack 0 0 0"
								}

							}
, 							{
								"box" : 								{
									"id" : "obj-2",
									"maxclass" : "newobj",
									"numinlets" : 3,
									"numoutlets" : 2,
									"outlettype" : [ "float", "float" ],
									"patching_rect" : [ 58.0, 177.0, 103.0, 22.0 ],
									"style" : "",
									"text" : "makenote 0 1000"
								}

							}
, 							{
								"box" : 								{
									"comment" : "",
									"id" : "obj-1",
									"index" : 1,
									"maxclass" : "inlet",
									"numinlets" : 0,
									"numoutlets" : 1,
									"outlettype" : [ "" ],
									"patching_rect" : [ 58.0, 42.0, 30.0, 30.0 ],
									"style" : ""
								}

							}
 ],
						"lines" : [ 							{
								"patchline" : 								{
									"destination" : [ "obj-5", 0 ],
									"source" : [ "obj-1", 0 ]
								}

							}
, 							{
								"patchline" : 								{
									"destination" : [ "obj-7", 0 ],
									"source" : [ "obj-10", 0 ]
								}

							}
, 							{
								"patchline" : 								{
									"destination" : [ "obj-2", 0 ],
									"source" : [ "obj-12", 0 ]
								}

							}
, 							{
								"patchline" : 								{
									"destination" : [ "obj-20", 1 ],
									"source" : [ "obj-2", 1 ]
								}

							}
, 							{
								"patchline" : 								{
									"destination" : [ "obj-24", 0 ],
									"source" : [ "obj-2", 0 ]
								}

							}
, 							{
								"patchline" : 								{
									"destination" : [ "obj-2", 2 ],
									"order" : 1,
									"source" : [ "obj-5", 2 ]
								}

							}
, 							{
								"patchline" : 								{
									"destination" : [ "obj-2", 1 ],
									"order" : 1,
									"source" : [ "obj-5", 1 ]
								}

							}
, 							{
								"patchline" : 								{
									"destination" : [ "obj-2", 0 ],
									"order" : 1,
									"source" : [ "obj-5", 0 ]
								}

							}
, 							{
								"patchline" : 								{
									"destination" : [ "obj-3", 1 ],
									"order" : 0,
									"source" : [ "obj-5", 2 ]
								}

							}
, 							{
								"patchline" : 								{
									"destination" : [ "obj-4", 1 ],
									"order" : 0,
									"source" : [ "obj-5", 1 ]
								}

							}
, 							{
								"patchline" : 								{
									"destination" : [ "obj-6", 1 ],
									"order" : 0,
									"source" : [ "obj-5", 0 ]
								}

							}
, 							{
								"patchline" : 								{
									"destination" : [ "obj-12", 0 ],
									"source" : [ "obj-7", 0 ]
								}

							}
, 							{
								"patchline" : 								{
									"destination" : [ "obj-24", 0 ],
									"source" : [ "obj-9", 0 ]
								}

							}
 ]
					}
,
					"patching_rect" : [ 30.0, 119.0, 79.0, 22.0 ],
					"saved_object_attributes" : 					{
						"description" : "",
						"digest" : "",
						"globalpatchername" : "",
						"style" : "",
						"tags" : ""
					}
,
					"style" : "",
					"text" : "patcher bass",
					"varname" : "bass"
				}

			}
, 			{
				"box" : 				{
					"id" : "obj-4",
					"maxclass" : "newobj",
					"numinlets" : 2,
					"numoutlets" : 2,
					"outlettype" : [ "", "" ],
					"patching_rect" : [ 348.0, 74.0, 149.0, 22.0 ],
					"style" : "",
					"text" : "route /dust_more/sparkles"
				}

			}
, 			{
				"box" : 				{
					"id" : "obj-3",
					"maxclass" : "newobj",
					"numinlets" : 2,
					"numoutlets" : 2,
					"outlettype" : [ "", "" ],
					"patching_rect" : [ 187.0, 74.0, 131.0, 22.0 ],
					"style" : "",
					"text" : "route /dust_more/pads"
				}

			}
, 			{
				"box" : 				{
					"id" : "obj-2",
					"maxclass" : "newobj",
					"numinlets" : 2,
					"numoutlets" : 2,
					"outlettype" : [ "", "" ],
					"patching_rect" : [ 30.0, 74.0, 130.0, 22.0 ],
					"style" : "",
					"text" : "route /dust_more/bass"
				}

			}
, 			{
				"box" : 				{
					"id" : "obj-1",
					"maxclass" : "newobj",
					"numinlets" : 1,
					"numoutlets" : 1,
					"outlettype" : [ "" ],
					"patching_rect" : [ 186.0, 24.0, 99.0, 22.0 ],
					"style" : "",
					"text" : "udpreceive 9001"
				}

			}
 ],
		"lines" : [ 			{
				"patchline" : 				{
					"destination" : [ "obj-2", 0 ],
					"order" : 2,
					"source" : [ "obj-1", 0 ]
				}

			}
, 			{
				"patchline" : 				{
					"destination" : [ "obj-3", 0 ],
					"order" : 1,
					"source" : [ "obj-1", 0 ]
				}

			}
, 			{
				"patchline" : 				{
					"destination" : [ "obj-4", 0 ],
					"order" : 0,
					"source" : [ "obj-1", 0 ]
				}

			}
, 			{
				"patchline" : 				{
					"destination" : [ "obj-8", 0 ],
					"source" : [ "obj-10", 0 ]
				}

			}
, 			{
				"patchline" : 				{
					"destination" : [ "obj-5", 0 ],
					"source" : [ "obj-2", 0 ]
				}

			}
, 			{
				"patchline" : 				{
					"destination" : [ "obj-6", 0 ],
					"source" : [ "obj-3", 0 ]
				}

			}
, 			{
				"patchline" : 				{
					"destination" : [ "obj-7", 0 ],
					"source" : [ "obj-4", 0 ]
				}

			}
, 			{
				"patchline" : 				{
					"destination" : [ "obj-10", 0 ],
					"order" : 3,
					"source" : [ "obj-9", 0 ]
				}

			}
, 			{
				"patchline" : 				{
					"destination" : [ "obj-12", 0 ],
					"order" : 2,
					"source" : [ "obj-9", 0 ]
				}

			}
, 			{
				"patchline" : 				{
					"destination" : [ "obj-14", 0 ],
					"order" : 1,
					"source" : [ "obj-9", 0 ]
				}

			}
, 			{
				"patchline" : 				{
					"destination" : [ "obj-16", 0 ],
					"order" : 0,
					"source" : [ "obj-9", 0 ]
				}

			}
 ],
		"parameters" : 		{
			"obj-5::obj-24::obj-7::obj-12" : [ "KeyboardMode", "KeyboardMode", 0 ],
			"obj-5::obj-24::obj-8::obj-46" : [ "Offset[1]", "Offset", 0 ],
			"obj-5::obj-24::obj-16::obj-11" : [ "Res", "Res", 0 ],
			"obj-5::obj-24::obj-16::obj-20" : [ "Freq", "Freq", 0 ],
			"obj-5::obj-24::obj-8::obj-106" : [ "CV3[1]", "CV3", 0 ],
			"obj-5::obj-24::obj-5::obj-55" : [ "DSP", "DSP", 0 ],
			"obj-5::obj-24::obj-3::obj-29" : [ "Decay", "Decay", 0 ],
			"obj-5::obj-24::obj-2::obj-28" : [ "Bend", "Bend", 0 ],
			"obj-5::obj-24::obj-16::obj-95" : [ "ResCV", "CV", 0 ],
			"obj-5::obj-24::obj-3::obj-31" : [ "Release", "Release", 0 ],
			"obj-5::obj-24::obj-23::obj-55" : [ "Bypass", "Bypass", 0 ],
			"obj-5::obj-24::obj-7::obj-15::obj-2" : [ "pastebang", "pastebang", 0 ],
			"obj-5::obj-24::obj-16::obj-23" : [ "Offset", "Offset", 0 ],
			"obj-5::obj-24::obj-3::obj-2" : [ "Attack", "Attack", 0 ],
			"obj-5::obj-24::obj-4::obj-1" : [ "Time", "Time", 0 ],
			"obj-5::obj-24::obj-17::obj-55" : [ "Bypass[1]", "Bypass", 0 ],
			"obj-5::obj-24::obj-7::obj-5" : [ "Octave", "Octave", 0 ],
			"obj-5::obj-24::obj-5::obj-56" : [ "OutputChannel", "OutputChannel", 0 ],
			"obj-5::obj-24::obj-16::obj-51" : [ "CV2[1]", "CV2", 0 ],
			"obj-5::obj-24::obj-3::obj-26" : [ "mute", "mute", 0 ],
			"obj-5::obj-24::obj-4::obj-28" : [ "Mix", "Mix", 0 ],
			"obj-5::obj-24::obj-8::obj-24" : [ "Freq[2]", "Freq", 0 ],
			"obj-5::obj-24::obj-2::obj-20" : [ "ModWheelActivityLED", "ModWheelActivityLED", 0 ],
			"obj-5::obj-24::obj-3::obj-32" : [ "Sustain", "Sustain", 0 ],
			"obj-5::obj-24::obj-23::obj-33" : [ "Quadrants", "Quadrants", 0 ],
			"obj-5::obj-24::obj-8::obj-45" : [ "TimeMode[1]", "TimeMode", 1 ],
			"obj-5::obj-24::obj-16::obj-55" : [ "power", "power", 0 ],
			"obj-5::obj-24::obj-4::obj-25" : [ "Cutoff", "Cutoff", 0 ],
			"obj-5::obj-24::obj-8::obj-51" : [ "Fatness", "Fatness", 0 ],
			"obj-5::obj-24::obj-8::obj-107" : [ "Linear", "Linear", 0 ],
			"obj-5::obj-24::obj-17::obj-80" : [ "Response[1]", "Response", 0 ],
			"obj-5::obj-24::obj-5::obj-22" : [ "Mute[2]", "Mute", 0 ],
			"obj-5::obj-24::obj-4::obj-47" : [ "bypass", "bypass", 0 ],
			"obj-5::obj-24::obj-7::obj-68" : [ "RepeatInterval", "RepeatInterval", 0 ],
			"obj-5::obj-24::obj-5::obj-52" : [ "Level", "Level", 0 ],
			"obj-5::obj-24::obj-3::obj-47" : [ "attack curve", "attack curve", 0 ],
			"obj-5::obj-24::obj-16::obj-38" : [ "FilterType", "FilterType", 0 ],
			"obj-5::obj-24::obj-23::obj-80" : [ "Response", "Response", 0 ],
			"obj-5::obj-24::obj-4::obj-26" : [ "Reflections", "Reflections", 0 ],
			"obj-5::obj-24::obj-8::obj-129" : [ "CV2", "CV2", 0 ],
			"obj-5::obj-24::obj-17::obj-33" : [ "Quadrants[1]", "Quadrants", 0 ],
			"obj-5::obj-24::obj-8::obj-331" : [ "WaveformCloud", "Waveform", 0 ],
			"obj-5::obj-24::obj-8::obj-20" : [ "Mute", "Mute", 0 ],
			"obj-5::obj-24::obj-2::obj-69" : [ "1voctled", "1voctled", 0 ],
			"obj-5::obj-24::obj-3::obj-45" : [ "release curve", "release curve", 0 ],
			"obj-5::obj-24::obj-16::obj-54" : [ "CV1", "CV1", 0 ],
			"obj-5::obj-24::obj-3::obj-46" : [ "decay curve", "decay curve", 0 ],
			"obj-5::obj-24::obj-16::obj-63" : [ "CV3", "CV3", 0 ],
			"obj-5::obj-24::obj-16::obj-22" : [ "TimeMode", "TimeMode", 1 ]
		}
,
		"dependency_cache" : [ 			{
				"name" : "bp.Keyboard.maxpat",
				"bootpath" : "C74:/packages/BEAP/clippings/BEAP/Input",
				"type" : "JSON",
				"implicit" : 1
			}
, 			{
				"name" : "background_sm.maxpat",
				"bootpath" : "C74:/packages/BEAP/misc",
				"type" : "JSON",
				"implicit" : 1
			}
, 			{
				"name" : "pastebang.maxpat",
				"bootpath" : "C74:/packages/BEAP/misc",
				"type" : "JSON",
				"implicit" : 1
			}
, 			{
				"name" : "bp.MIDI to Signal.maxpat",
				"bootpath" : "C74:/packages/BEAP/clippings/BEAP/MIDI",
				"type" : "JSON",
				"implicit" : 1
			}
, 			{
				"name" : "bp.Stereo.maxpat",
				"bootpath" : "C74:/packages/BEAP/clippings/BEAP/Output",
				"type" : "JSON",
				"implicit" : 1
			}
, 			{
				"name" : "bp.VCA.maxpat",
				"bootpath" : "C74:/packages/BEAP/clippings/BEAP/Level",
				"type" : "JSON",
				"implicit" : 1
			}
, 			{
				"name" : "bp.ADSR2.maxpat",
				"bootpath" : "C74:/packages/BEAP/clippings/BEAP/Envelope",
				"type" : "JSON",
				"implicit" : 1
			}
, 			{
				"name" : "bp.Reverb 1.maxpat",
				"bootpath" : "C74:/packages/BEAP/clippings/BEAP/Effects",
				"type" : "JSON",
				"implicit" : 1
			}
, 			{
				"name" : "M4L.cross1~.maxpat",
				"bootpath" : "C74:/patchers/m4l/Tools resources",
				"type" : "JSON",
				"implicit" : 1
			}
, 			{
				"name" : "bp.Cloud.maxpat",
				"bootpath" : "C74:/packages/BEAP/clippings/BEAP/Oscillator",
				"type" : "JSON",
				"implicit" : 1
			}
, 			{
				"name" : "bp.MMF.maxpat",
				"bootpath" : "C74:/packages/BEAP/clippings/BEAP/Filter",
				"type" : "JSON",
				"implicit" : 1
			}
, 			{
				"name" : "number_switch.js",
				"bootpath" : "~/Developer/Mindwerk/2018/dust-more/sound",
				"patcherrelativepath" : ".",
				"type" : "TEXT",
				"implicit" : 1
			}
 ],
		"autosave" : 0
	}

}
